<?xml version="1.0" encoding="UTF-8"?>
<svg fill="#3A3A3A" xmlns="http://www.w3.org/2000/svg" id="Layer_1" data-name="Layer 1" viewBox="0 0 24 24" width="512" height="512"><path d="m10,10c0,.552-.448,1-1,1s-1-.448-1-1,.448-1,1-1,1,.448,1,1Zm5-1c-.552,0-1,.448-1,1s.448,1,1,1,1-.448,1-1-.448-1-1-1Zm4-1.5v5c0,1.379-1.122,2.5-2.5,2.5H7.5c-1.378,0-2.5-1.121-2.5-2.5v-5c0-1.379,1.122-2.5,2.5-2.5h9c1.378,0,2.5,1.121,2.5,2.5Zm-1,0c0-.827-.673-1.5-1.5-1.5H7.5c-.827,0-1.5.673-1.5,1.5v5c0,.827.673,1.5,1.5,1.5h9c.827,0,1.5-.673,1.5-1.5v-5Zm6,3c0,.276-.224.5-.5.5h-1.5v5.5c0,1.93-1.57,3.5-3.5,3.5h-1.532l-3.985,3.295c-.275.245-.626.368-.979.368-.356,0-.715-.126-1.001-.38l-3.897-3.283h-1.606c-1.93,0-3.5-1.57-3.5-3.5v-5.5H.5c-.276,0-.5-.224-.5-.5s.224-.5.5-.5h1.5V3.5c0-1.93,1.57-3.5,3.5-3.5h13c1.93,0,3.5,1.57,3.5,3.5v6.5h1.5c.276,0,.5.224.5.5Zm-3-7c0-1.379-1.122-2.5-2.5-2.5H5.5c-1.378,0-2.5,1.121-2.5,2.5v13c0,1.379,1.122,2.5,2.5,2.5h1.789c.118,0,.232.042.322.117l4.047,3.409c.2.178.485.18.675.009l4.138-3.421c.089-.073.202-.114.318-.114h1.711c1.378,0,2.5-1.121,2.5-2.5V3.5Z"/></svg>
