<svg width="22" height="22" viewBox="0 0 22 22" fill="none" xmlns="http://www.w3.org/2000/svg">
<g clip-path="url(#clip0_161_237)">
<path d="M21.0837 5.5H0.916992V4.58333C0.916992 3.85399 1.20672 3.15451 1.72245 2.63879C2.23817 2.12306 2.93765 1.83333 3.66699 1.83333H3.82374C4.01403 1.29753 4.3654 0.833718 4.82968 0.50549C5.29396 0.177261 5.84841 0.000693686 6.41699 0L15.5837 0C16.1522 0.000693686 16.7067 0.177261 17.171 0.50549C17.6353 0.833718 17.9866 1.29753 18.1769 1.83333H18.3337C19.063 1.83333 19.7625 2.12306 20.2782 2.63879C20.7939 3.15451 21.0837 3.85399 21.0837 4.58333V5.5ZM9.16699 14.6667C9.26324 18.2912 12.7374 18.2903 12.8337 14.6667C12.742 11.0422 9.26324 11.0431 9.16699 14.6667ZM7.40791 13.75C8.22558 8.90358 13.7769 8.90633 14.5927 13.75H19.2577L20.0597 7.33333H1.94091L2.74299 13.75H7.40791ZM14.5927 15.5833C13.7751 20.4298 8.22466 20.427 7.40791 15.5833H2.97216L3.77424 22H18.2264L19.0285 15.5833H14.5927Z" fill="black"/>
</g>
<defs>
<clipPath id="clip0_161_237">
<rect width="22" height="22" fill="white"/>
</clipPath>
</defs>
</svg>
