<?xml version="1.0" encoding="UTF-8"?>
<svg xmlns="http://www.w3.org/2000/svg" id="Layer_1" data-name="Layer 1" viewBox="0 0 24 24">
  <path d="m12,10c-1.654,0-3,1.346-3,3s1.346,3,3,3,3-1.346,3-3-1.346-3-3-3Zm0,5c-1.103,0-2-.897-2-2s.897-2,2-2,2,.897,2,2-.897,2-2,2Zm8.096-9.611l-3.484-3.485c-1.229-1.228-2.861-1.904-4.597-1.904h-5.515C4.019,0,2,2.019,2,4.5v15c0,2.481,2.019,4.5,4.5,4.5h11c2.481,0,4.5-2.019,4.5-4.5v-9.515c0-1.737-.677-3.369-1.904-4.596Zm-.707.707c.55.55.959,1.199,1.232,1.904h-5.121c-.827,0-1.5-.673-1.5-1.5V1.38c.704.273,1.354.682,1.904,1.231l3.484,3.485Zm-11.389,16.904c0-2.206,1.794-4,4-4s4,1.794,4,4h-8Zm13-3.5c0,1.93-1.57,3.5-3.5,3.5h-.5c0-2.757-2.243-5-5-5s-5,2.243-5,5h-.5c-1.93,0-3.5-1.57-3.5-3.5V4.5c0-1.93,1.57-3.5,3.5-3.5h5.515c.335,0,.663.038.985.096v5.404c0,1.378,1.121,2.5,2.5,2.5h5.404c.058.323.096.651.096.985v9.515Z"/>
</svg>
