<?xml version="1.0" encoding="UTF-8"?>
<svg xmlns="http://www.w3.org/2000/svg" id="Layer_1" data-name="Layer 1" viewBox="0 0 24 24" width="512" height="512"><path d="m20.096,5.389l-3.484-3.485c-1.229-1.228-2.861-1.904-4.597-1.904h-5.515C4.019,0,2,2.019,2,4.5v7c0,.276.224.5.5.5s.5-.224.5-.5v-7c0-1.93,1.57-3.5,3.5-3.5h5.515c.334,0,.663.03.985.088v5.412c0,1.378,1.121,2.5,2.5,2.5h5.412c.058.322.088.651.088.985v9.515c0,1.93-1.57,3.5-3.5,3.5H6.5c-1.93,0-3.5-1.57-3.5-3.5v-2c0-.276-.224-.5-.5-.5s-.5.224-.5.5v2c0,2.481,2.019,4.5,4.5,4.5h11c2.481,0,4.5-2.019,4.5-4.5v-9.515c0-1.737-.677-3.369-1.904-4.596Zm-4.596,2.611c-.827,0-1.5-.673-1.5-1.5V1.368c.705.273,1.353.692,1.904,1.243l3.484,3.485c.551.551.971,1.198,1.244,1.904h-5.132Zm-3.636,7H.5c-.276,0-.5-.224-.5-.5s.224-.5.5-.5h11.363c-.04-.066-.089-.129-.146-.187l-2.566-2.511c-.197-.193-.201-.51-.008-.707.192-.197.51-.201.707-.008l2.57,2.515c.384.384.577.886.58,1.388,0,.003,0,.006,0,.009,0,.003,0,.006,0,.009-.002.502-.194,1.003-.576,1.384l-2.574,2.519c-.098.095-.224.143-.35.143-.13,0-.26-.05-.357-.15-.193-.197-.189-.514.008-.707l2.57-2.515c.056-.056.104-.117.143-.183Z"/></svg>
