<svg width="27" height="27" viewBox="0 0 27 27" fill="none" xmlns="http://www.w3.org/2000/svg">
<g clip-path="url(#clip0_161_172)">
<path fill-rule="evenodd" clip-rule="evenodd" d="M13.0495 0.333008C5.84289 0.333008 0 6.37651 0 13.833C0 19.7978 3.73867 24.858 8.92365 26.6434C9.57612 26.7683 9.81536 26.3509 9.81536 25.9943C9.81536 25.6725 9.8034 24.6094 9.79796 23.481C6.16804 24.2978 5.40139 21.888 5.40139 21.888C4.80764 20.3276 3.9529 19.9125 3.9529 19.9125C2.76866 19.0744 4.04207 19.0924 4.04207 19.0924C5.35245 19.188 6.0419 20.484 6.0419 20.484C7.20547 22.5473 9.09438 21.951 9.83929 21.6056C9.95673 20.7326 10.2949 20.1375 10.6679 19.8C7.76986 19.4591 4.72281 18.3015 4.72281 13.1288C4.72281 11.655 5.23283 10.4501 6.068 9.50513C5.93206 9.16426 5.48512 7.79176 6.19414 5.93213C6.19414 5.93213 7.29029 5.56988 9.78383 7.31588C10.8245 7.01663 11.9402 6.86701 13.0495 6.86138C14.1587 6.86701 15.2755 7.01663 16.3183 7.31588C18.8086 5.56876 19.9037 5.93213 19.9037 5.93213C20.6138 7.79176 20.1668 9.16426 20.032 9.50513C20.8682 10.4501 21.375 11.655 21.375 13.1288C21.375 18.3139 18.3225 19.4558 15.4168 19.7899C15.8844 20.2084 16.302 21.0308 16.302 22.2896C16.302 24.0964 16.2868 25.5499 16.2868 25.9943C16.2868 26.3531 16.5217 26.775 17.1829 26.6423C22.3657 24.8546 26.1 19.7966 26.1 13.8341C26.0989 6.37763 20.256 0.333008 13.0495 0.333008Z" fill="black"/>
<path d="M4.94281 19.7168C4.91454 19.7843 4.81232 19.8045 4.7188 19.7584C4.62419 19.7145 4.5709 19.6223 4.60135 19.5559C4.62963 19.4873 4.73185 19.4681 4.82646 19.5143C4.92106 19.557 4.97544 19.6493 4.94281 19.7168Z" fill="black"/>
<path d="M5.47104 20.3265C5.40905 20.3861 5.28726 20.358 5.20461 20.2646C5.1187 20.1701 5.10348 20.0441 5.16655 19.9845C5.23071 19.9249 5.34815 19.953 5.43406 20.0475C5.51997 20.1409 5.53628 20.2657 5.47104 20.3265Z" fill="black"/>
<path d="M5.98531 21.1039C5.90484 21.1613 5.77435 21.1073 5.69387 20.988C5.6134 20.8676 5.6134 20.7236 5.69605 20.6663C5.77652 20.6089 5.90593 20.6606 5.98749 20.7799C6.06687 20.9014 6.06687 21.0454 5.98531 21.1039Z" fill="black"/>
<path d="M6.69036 21.8554C6.61859 21.9375 6.46634 21.915 6.35542 21.8036C6.24124 21.6945 6.2097 21.5404 6.28148 21.4583C6.35434 21.3761 6.50767 21.3998 6.61967 21.51C6.73277 21.6191 6.76648 21.7744 6.69036 21.8554Z" fill="black"/>
<path d="M7.66326 22.2908C7.63172 22.3965 7.48491 22.4449 7.33702 22.3999C7.18913 22.3538 7.09234 22.23 7.12279 22.1231C7.15324 22.0163 7.30113 21.9668 7.45011 22.0151C7.59692 22.0601 7.6937 22.1839 7.66326 22.2908Z" fill="black"/>
<path d="M8.73105 22.3718C8.73431 22.4831 8.60925 22.5754 8.45375 22.5776C8.29824 22.581 8.17101 22.491 8.16992 22.3819C8.16992 22.2694 8.2928 22.1783 8.44831 22.1749C8.60382 22.1715 8.73105 22.2615 8.73105 22.3718Z" fill="black"/>
<path d="M9.72558 22.1974C9.74407 22.3054 9.63641 22.4179 9.48199 22.4471C9.33083 22.4764 9.19055 22.4089 9.17098 22.3009C9.15249 22.1895 9.26232 22.0781 9.41348 22.0489C9.56681 22.0208 9.706 22.086 9.72558 22.1974Z" fill="black"/>
</g>
<defs>
<clipPath id="clip0_161_172">
<rect width="26.0989" height="27" fill="white"/>
</clipPath>
</defs>
</svg>
