<svg width="626" height="460" viewBox="0 0 626 460" fill="none" xmlns="http://www.w3.org/2000/svg">
<g clip-path="url(#clip0_211_568)">
<path d="M610.401 200.477C610.576 197.802 604.305 196.497 604.59 194.156C604.873 191.824 611.199 192.308 617.885 188.096C619.091 187.336 626.69 182.548 625.949 178.956C624.545 172.148 594.413 175.623 591.481 165.718C590.837 163.545 591.435 160.496 589.66 153.664C588.954 150.946 588.368 149.535 587.171 149.09C585.472 148.458 584.028 150.322 579.858 153.076C573.604 157.205 572.461 155.914 567.974 159.553C564.643 162.254 563.523 164.384 562.073 163.955C560.021 163.347 560.937 158.689 558.588 157.552C556.19 156.392 552.008 159.681 549.446 162.534C544.638 167.887 544.14 173.253 542.541 178.158C540.804 183.489 536.956 190.769 527.41 198.266L440.263 261.741C458.608 249.034 509.911 214.893 529.899 202.839C535.669 199.36 541.729 195.972 548.345 197.53C554.715 199.03 560.832 204.933 571.101 208.849C572.3 209.307 575.655 210.537 577.166 209.102C578.414 207.916 577.265 205.989 578.414 204.864C579.956 203.355 583.275 205.598 588.715 206.366C592.551 206.908 595.491 206.441 598.02 206.039C598.782 205.918 610.169 204.038 610.401 200.477Z" fill="#F2F2F2"/>
<path d="M463.154 164.422C461.892 163.564 459.443 166.267 458.377 165.452C457.315 164.64 459.377 161.673 459.24 157.174C459.216 156.362 459.06 151.249 457.084 150.577C453.339 149.302 446.35 165.102 440.646 163.685C439.394 163.374 438.071 162.2 434.208 161.101C432.671 160.663 431.81 160.544 431.246 161.004C430.446 161.656 430.943 162.903 431.091 165.745C431.312 170.008 430.349 170.197 430.839 173.45C431.203 175.866 431.925 177.03 431.296 177.619C430.405 178.451 428.385 176.657 427.149 177.483C425.888 178.326 426.295 181.328 426.955 183.41C428.194 187.316 430.682 189.108 432.627 191.309C434.74 193.7 437.201 197.69 438.124 204.542L444.114 265.656C443.174 252.979 441.23 217.933 441.085 204.639C441.043 200.801 441.13 196.848 443.803 194.048C446.377 191.353 451.037 190.052 455.921 186.138C456.492 185.681 458.063 184.389 457.795 183.233C457.574 182.277 456.297 182.286 456.076 181.397C455.781 180.204 457.839 179.221 459.785 176.771C461.158 175.044 461.777 173.465 462.31 172.107C462.47 171.698 464.833 165.563 463.154 164.422Z" fill="#F2F2F2"/>
<path d="M484.397 187.264L488.274 179.973L488.972 179.697C492.199 178.421 494.603 176.663 496.119 174.469C496.36 174.12 496.583 173.759 496.811 173.392C497.712 171.934 498.832 170.123 501.148 168.703C502.442 167.913 505.692 166.259 507.634 168.071C508.162 168.552 508.419 169.123 508.539 169.666C508.642 169.621 508.746 169.577 508.859 169.529C510.238 168.962 511.075 168.887 511.88 168.814C512.499 168.758 513.138 168.701 514.325 168.342C514.845 168.185 515.275 168.028 515.636 167.896C516.732 167.499 518.101 167.068 519.381 167.969C520.715 168.98 520.656 170.616 520.618 171.699C520.55 173.632 520.273 174.868 520.088 175.688C520.02 175.988 519.945 176.325 519.943 176.444C519.94 177.402 523.971 179.267 525.484 179.977C528.89 181.562 531.837 182.933 531.607 185.609C531.443 187.524 529.615 188.951 526.019 189.96C524.9 190.274 523.862 190.384 522.981 190.424C523.266 191.042 523.395 191.779 523.095 192.592C522.383 194.515 519.848 195.194 515.556 194.616C514.488 194.475 513.054 194.28 511.382 193.513C510.595 193.152 509.941 192.747 509.388 192.391C509.161 192.698 508.855 192.987 508.424 193.206C507.159 193.852 505.657 193.543 503.979 192.22C502.114 190.793 500.774 189.332 499.591 188.045C498.556 186.923 497.662 185.96 496.794 185.447C495.17 184.516 493.14 184.936 490.654 185.581L484.397 187.264Z" fill="#F2F2F2"/>
<path d="M515.51 149.356L507.479 147.453L507.035 146.848C504.983 144.047 502.674 142.167 500.169 141.256C499.77 141.111 499.365 140.986 498.952 140.859C497.314 140.357 495.279 139.732 493.319 137.85C492.227 136.798 489.804 134.073 491.062 131.733C491.394 131.1 491.88 130.706 492.375 130.452C492.306 130.364 492.237 130.274 492.162 130.178C491.263 128.986 490.978 128.196 490.704 127.435C490.493 126.85 490.276 126.245 489.628 125.188C489.344 124.724 489.083 124.349 488.864 124.032C488.202 123.073 487.439 121.856 487.985 120.389C488.623 118.842 490.22 118.484 491.277 118.246C493.162 117.821 494.428 117.776 495.267 117.746C495.574 117.736 495.919 117.723 496.035 117.695C496.962 117.455 497.742 113.081 498.045 111.436C498.713 107.737 499.291 104.537 501.936 104.081C503.829 103.754 505.672 105.162 507.56 108.386C508.147 109.39 508.517 110.366 508.778 111.21C509.303 110.777 509.983 110.465 510.845 110.549C512.885 110.75 514.184 113.032 514.714 117.333C514.849 118.402 515.024 119.839 514.707 121.652C514.557 122.505 514.332 123.241 514.128 123.867C514.482 124.008 514.839 124.231 515.16 124.593C516.105 125.654 516.188 127.186 515.335 129.145C514.428 131.312 513.356 132.98 512.412 134.452C511.59 135.738 510.885 136.847 510.61 137.817C510.122 139.625 511.043 141.484 512.297 143.727L515.51 149.356Z" fill="#F2F2F2"/>
<path d="M525.648 126.997L529.525 119.706L530.223 119.43C533.45 118.154 535.854 116.396 537.37 114.202C537.611 113.853 537.834 113.492 538.062 113.125C538.963 111.668 540.084 109.856 542.4 108.436C543.694 107.646 546.943 105.992 548.886 107.804C549.413 108.285 549.671 108.856 549.791 109.399C549.893 109.354 549.998 109.31 550.11 109.262C551.49 108.695 552.326 108.62 553.132 108.547C553.751 108.491 554.39 108.434 555.576 108.076C556.097 107.918 556.526 107.761 556.888 107.629C557.983 107.232 559.353 106.802 560.632 107.703C561.966 108.713 561.907 110.349 561.869 111.432C561.802 113.365 561.524 114.602 561.34 115.421C561.272 115.721 561.197 116.058 561.195 116.177C561.191 117.136 565.222 119 566.735 119.71C570.141 121.295 573.089 122.666 572.858 125.342C572.695 127.257 570.866 128.684 567.271 129.694C566.151 130.007 565.113 130.117 564.232 130.157C564.517 130.775 564.646 131.512 564.346 132.325C563.635 134.248 561.099 134.927 556.807 134.349C555.739 134.208 554.305 134.013 552.634 133.247C551.847 132.885 551.193 132.48 550.639 132.125C550.413 132.431 550.106 132.72 549.676 132.939C548.41 133.585 546.908 133.276 545.231 131.953C543.366 130.526 542.025 129.065 540.842 127.779C539.807 126.656 538.914 125.693 538.046 125.18C536.422 124.25 534.392 124.669 531.905 125.314L525.648 126.997Z" fill="#F2F2F2"/>
<path d="M442.604 263.184L441.794 261.322L440.011 260.379C440.09 260.207 440.242 259.792 440.485 259.147C441.817 255.612 445.867 244.852 453.918 229.051C459.537 218.021 465.922 207.098 472.897 196.579C479.882 186.043 485.781 178.485 490.52 172.409C494.095 167.827 497.578 163.518 500.973 159.322C510.041 148.109 518.604 137.516 526.43 124.655C528.179 121.785 531.815 115.809 532.648 107.368C533.131 102.473 532.604 97.4714 531.077 92.5057L534.957 91.3122C536.639 96.7976 537.219 102.335 536.684 107.771C535.76 117.129 531.798 123.641 529.894 126.77C521.929 139.858 513.282 150.551 504.127 161.872C500.746 166.054 497.277 170.344 493.716 174.907C489.02 180.926 483.174 188.419 476.278 198.819C469.386 209.212 463.08 220.002 457.53 230.892C449.582 246.494 445.593 257.095 444.282 260.577C443.581 262.436 443.434 262.826 442.604 263.184Z" fill="#F2F2F2"/>
<path d="M521.299 93.6199C521.162 93.5258 521.025 93.4274 520.892 93.3213C518.147 91.2148 516.677 87.6997 516.519 82.8743C516.448 80.6068 517.062 78.4962 518.287 74.2872C518.475 73.6377 519.465 70.3677 521.48 66.3159C522.796 63.6678 523.53 62.6866 524.619 62.122C525.831 61.492 527.165 61.3878 528.452 61.5831C528.629 61.2335 528.889 60.9268 529.258 60.6852C530.784 59.6798 532.175 60.902 532.935 61.5524C533.314 61.8891 533.785 62.3127 534.364 62.6662C535.272 63.2261 535.923 63.2882 536.907 63.3862C537.849 63.4793 539.021 63.5951 540.46 64.2024C543.306 65.389 544.909 67.5251 545.438 68.2286C548.231 71.9152 548.088 75.9532 547.922 80.6284C547.886 81.5645 547.67 84.9133 546.37 88.8158C545.431 91.6313 544.621 92.6127 543.885 93.252C542.379 94.5687 540.78 94.818 536.929 95.1468C532.902 95.4954 530.883 95.668 529.331 95.5507C525.722 95.2725 523.456 95.0979 521.299 93.6199Z" fill="#F2F2F2"/>
<path d="M505.311 0H277.955C269.615 0 262.833 6.78608 262.833 15.1315V249.789C262.833 258.134 269.615 264.92 277.955 264.92H505.311C513.651 264.92 520.433 258.134 520.433 249.789V15.1315C520.433 6.78608 513.651 0 505.311 0ZM518.843 249.789C518.843 257.267 512.784 263.329 505.311 263.329H277.955C270.482 263.329 264.423 257.267 264.423 249.789V15.1315C264.423 7.65334 270.482 1.59111 277.955 1.59111H398.385C464.912 1.59111 518.843 55.5556 518.843 122.124V249.789Z" fill="#3F3D56"/>
<path d="M258.021 176.363C250.052 178.518 244.704 184.379 246.076 189.454C247.448 194.528 255.018 196.893 262.99 194.736C266.186 193.918 269.139 192.346 271.604 190.152L305.252 180.593L300.433 164.889L267.773 175.979C264.539 175.326 261.194 175.457 258.021 176.363Z" fill="#FFB6B6"/>
<path d="M399.027 129.247C399.027 129.247 408.527 143.192 387.117 153.711C365.707 164.231 326.13 179.244 326.13 179.244L271.485 191.912L263.233 173.809L328.075 156.131L380.912 126.626L399.027 129.247Z" fill="#3F3D56"/>
<path d="M392.671 92.1313C392.428 98.7413 397.184 106.588 402.212 106.749C408.26 106.943 436.855 108.981 437.774 106.607C444.157 90.1306 414.099 55.9512 407.323 54.9651C403.682 54.4353 399.322 59.6662 397.646 63.9846C395.297 70.0361 398.764 72.8899 396.807 81.0425C395.315 87.2593 392.841 87.5103 392.671 92.1313Z" fill="#2F2E41"/>
<path d="M342.897 352.702L322.828 357.304L342.994 417.178L356.593 414.061L342.897 352.702Z" fill="#FFB6B6"/>
<path d="M335.726 398.506L343.488 399.645L344.684 403.806C344.684 403.806 344.943 398.514 353.516 394.887L355.744 398.611C355.744 398.611 360.334 401.565 361.817 408.889L365.11 428.699L358.37 430.488L353.425 417.474C353.425 417.474 350.704 414.985 346.376 431.822C346.376 431.822 344.623 437.481 328.722 436.825C326.537 436.735 324.614 435.276 324.03 433.167C323.709 432.003 323.851 430.799 325.193 429.993C328.609 427.94 332.582 428.132 334.115 424.484C335.648 420.835 335.726 398.506 335.726 398.506Z" fill="#2F2E41"/>
<path d="M386.498 379.924L368.576 379.481L371.085 442.528L385.035 442.777L386.498 379.924Z" fill="#FFB6B6"/>
<path d="M368.521 422.655L375.781 425.629L375.942 429.956C375.942 429.956 377.466 424.881 386.659 423.425L387.926 427.576C387.926 427.576 391.67 431.55 391.348 439.015L389.78 459.036L382.809 459.15L381.139 445.327C381.139 445.327 379.096 442.256 370.846 457.556C370.846 457.556 367.784 462.626 352.508 458.161C350.408 457.547 348.893 455.668 348.834 453.48C348.801 452.273 349.229 451.139 350.726 450.679C354.535 449.51 358.345 450.653 360.71 447.481C363.075 444.308 368.521 422.655 368.521 422.655Z" fill="#2F2E41"/>
<path d="M423.479 311.06L328.697 303.721L355.37 194.307L419.185 185.107L423.479 311.06Z" fill="#2F2E41"/>
<path d="M410.407 109.94L430.378 99.2943L446.504 118.347L414.098 222.279L354.819 196.014L399.843 118.992L410.407 109.94Z" fill="#BABABA"/>
<path d="M412.938 203.513C412.938 203.513 419.298 236.325 399.605 253.379L393.577 272.555L387.069 307.951L387.658 399.369L363.806 396.983L354.265 309.475L354.152 265.922L318.939 296.096L355.791 368.522L325.763 381.679L289.088 294.399C286.539 289.083 287.219 282.781 290.842 278.13L354.819 196.014L412.938 203.513Z" fill="#2F2E41"/>
<path d="M437.663 107.902L398.508 144.454C389.241 219.698 394.3 288.789 420.963 348.603L486.76 318.088C432.504 301.622 437.825 211.21 448.353 114.336L437.663 107.902Z" fill="#3F3D56"/>
<path d="M403.896 119.112L409.919 109.787L376.605 129.385L350.261 202.434L398.857 141.752L403.896 119.112Z" fill="#3F3D56"/>
<path d="M487.231 256.516C489.527 264.45 495.479 269.696 500.525 268.233C505.57 266.77 507.798 259.153 505.5 251.217C504.626 248.034 503.002 245.107 500.765 242.68L490.612 209.188L475.006 214.29L486.672 246.766C486.078 250.014 486.269 253.358 487.231 256.516Z" fill="#FFB6B6"/>
<path d="M436.142 115.116C436.142 115.116 449.799 105.213 460.923 126.326C472.047 147.438 488.182 186.592 488.182 186.592L502.407 240.884L484.56 249.658L465.037 185.311L434.044 133.311L436.142 115.116Z" fill="#3F3D56"/>
<path d="M419.903 98.4374C432.152 98.4374 442.082 88.5015 442.082 76.2448C442.082 63.9882 432.152 54.0522 419.903 54.0522C407.654 54.0522 397.724 63.9882 397.724 76.2448C397.724 88.5015 407.654 98.4374 419.903 98.4374Z" fill="#FFB6B6"/>
<path d="M419.976 67.5865C418.728 67.4633 418.086 68.7842 413.318 70.6272C411.629 71.2801 410.764 71.6078 409.772 71.6716C406.756 71.8655 404.412 70.1988 402.846 69.0849C400.299 67.2742 398.659 66.1079 398.339 64.2433C397.921 61.81 400.674 59.0918 406.197 53.7547C408.901 51.141 410.55 49.5622 413.196 47.6832C417.635 44.5315 419.855 42.9557 422.966 42.6464C427.087 42.2369 430.22 44.2046 434.741 47.0439C435.962 47.811 437.723 48.1798 439.589 48.3204C445.7 48.7806 450.939 52.8562 452.601 58.7584C452.728 59.2093 452.835 59.6175 452.915 59.967C456.195 74.298 455.28 89.2036 450.79 103.203C450.67 103.579 450.568 103.93 450.49 104.25C448.405 112.776 419.756 116.099 416.405 108.892C414.295 104.353 424.156 99.812 425.629 86.2795C426.654 76.8586 423.09 67.8938 419.976 67.5865Z" fill="#2F2E41"/>
<path d="M333.593 72.597H93.2846V73.8296H333.593V72.597Z" fill="#DADADA"/>
<path d="M299.668 54.5755H127.21C124.493 54.5755 122.283 52.3637 122.283 49.6451C122.283 46.9265 124.493 44.7146 127.21 44.7146H299.668C302.385 44.7146 304.595 46.9265 304.595 49.6451C304.595 52.3637 302.385 54.5755 299.668 54.5755Z" fill="#DADADA"/>
<path d="M93.8172 82.4062C99.5255 82.4062 104.153 77.7758 104.153 72.0639C104.153 66.3521 99.5255 61.7217 93.8172 61.7217C88.1089 61.7217 83.4814 66.3521 83.4814 72.0639C83.4814 77.7758 88.1089 82.4062 93.8172 82.4062Z" fill="#DADADA"/>
<path d="M125.62 60.1306C131.328 60.1306 135.955 55.5002 135.955 49.7883C135.955 44.0765 131.328 39.4461 125.62 39.4461C119.911 39.4461 115.284 44.0765 115.284 49.7883C115.284 55.5002 119.911 60.1306 125.62 60.1306Z" fill="#DADADA"/>
<path d="M252.497 187.953H12.1884V189.185H252.497V187.953Z" fill="#3F3D56"/>
<path d="M218.572 169.931H46.1139C43.397 169.931 41.1866 167.719 41.1866 165.001C41.1866 162.282 43.397 160.07 46.1139 160.07H218.572C221.289 160.07 223.499 162.282 223.499 165.001C223.499 167.719 221.289 169.931 218.572 169.931Z" fill="#9C9C9C"/>
<path d="M10.3358 197.762C16.0441 197.762 20.6716 193.132 20.6716 187.42C20.6716 181.708 16.0441 177.077 10.3358 177.077C4.62749 177.077 0 181.708 0 187.42C0 193.132 4.62749 197.762 10.3358 197.762Z" fill="#9C9C9C"/>
<path d="M42.1383 175.486C47.8466 175.486 52.4741 170.856 52.4741 165.144C52.4741 159.432 47.8466 154.802 42.1383 154.802C36.43 154.802 31.8025 159.432 31.8025 165.144C31.8025 170.856 36.43 175.486 42.1383 175.486Z" fill="#9C9C9C"/>
<path d="M281.119 315.242H40.8106V316.474H281.119V315.242Z" fill="#DADADA"/>
<path d="M247.194 297.22H74.7361C72.0192 297.22 69.8088 295.008 69.8088 292.29C69.8088 289.571 72.0192 287.359 74.7361 287.359H247.194C249.911 287.359 252.121 289.571 252.121 292.29C252.121 295.008 249.911 297.22 247.194 297.22Z" fill="#DADADA"/>
<path d="M69.9654 301.98C75.6737 301.98 80.3012 297.349 80.3012 291.638C80.3012 285.926 75.6737 281.295 69.9654 281.295C64.2571 281.295 59.6296 285.926 59.6296 291.638C59.6296 297.349 64.2571 301.98 69.9654 301.98Z" fill="#DADADA"/>
<path d="M38.958 325.847C44.6663 325.847 49.2938 321.216 49.2938 315.504C49.2938 309.792 44.6663 305.162 38.958 305.162C33.2497 305.162 28.6222 309.792 28.6222 315.504C28.6222 321.216 33.2497 325.847 38.958 325.847Z" fill="#DADADA"/>
</g>
<defs>
<clipPath id="clip0_211_568">
<rect width="626" height="460" fill="white"/>
</clipPath>
</defs>
</svg>
