<svg width="663" height="545" viewBox="0 0 663 545" fill="none" xmlns="http://www.w3.org/2000/svg">
<g clip-path="url(#clip0_213_680)">
<path d="M529.569 56.7094C528.133 62.0235 529.783 70.3912 530.405 75.3518C531.07 80.6552 521.873 85.4015 516.61 85.7015C516.739 83.9461 516.246 82.2011 515.216 80.7731C515.204 82.4713 514.854 84.1502 514.187 85.7123H470.271C464.74 75.3089 460.035 61.0913 465.115 46.3917C465.373 43.4395 466.497 40.629 468.347 38.3131C470.197 35.9972 472.69 34.279 475.513 33.3742L499.459 25.7137C508.903 25.7137 520.49 27.0529 525.71 34.0813C528.021 37.3172 529.568 41.034 530.236 44.9529C530.905 48.8718 530.677 52.8912 529.569 56.7094Z" fill="#2F2E41"/>
<path d="M571.617 516.427C572.4 516.456 573.172 516.243 573.83 515.818C574.488 515.393 574.999 514.776 575.294 514.051C575.589 513.326 575.655 512.527 575.481 511.764C575.307 511 574.902 510.309 574.322 509.783C574.222 509.401 574.151 509.127 574.051 508.745C574.781 506.837 576.065 505.19 577.739 504.016C579.412 502.842 581.398 502.194 583.441 502.155C585.485 502.116 587.494 502.689 589.211 503.799C590.927 504.909 592.273 506.506 593.075 508.385C597.704 518.934 603.667 529.843 600.864 541.537C619.724 500.58 612.695 449.924 583.917 415.325C576.013 411.071 569.567 403.44 567.823 394.525C571.727 395.806 576.549 392.596 573.584 388.527C572.301 386.973 571.005 385.432 569.722 383.878C584.354 368.002 602.202 392.564 586.134 413.957C591.52 420.576 596.199 427.74 600.094 435.332C599.134 427.24 600.11 419.036 602.941 411.395C605.816 404.271 611.275 398.243 616.073 392.062C621.908 384.532 634.095 387.864 634.98 397.342C629.547 399.184 628.914 407.06 635.159 408.078C633.694 425.738 622.316 442.063 606.505 449.953C612.528 466.348 614.985 483.838 613.713 501.257C616.323 480.889 638.122 475.745 653.314 467.514C654.28 466.882 655.409 466.545 656.564 466.543C657.718 466.541 658.848 466.875 659.816 467.505C660.784 468.134 661.548 469.031 662.014 470.087C662.48 471.142 662.629 472.311 662.443 473.45C660.343 474.326 658.336 475.409 656.451 476.682C655.568 477.288 654.894 478.152 654.521 479.156C654.148 480.16 654.096 481.254 654.37 482.289C654.644 483.325 655.231 484.25 656.052 484.938C656.873 485.626 657.886 486.044 658.954 486.133C651.438 505.246 631.661 518.221 611.223 518.344C609.34 526.893 606.574 535.224 602.968 543.201L572.635 543.49C572.523 543.154 572.422 542.807 572.321 542.471C575.13 542.621 577.947 542.426 580.709 541.892C573.197 533.172 567.409 528.741 571.616 516.428L571.617 516.427Z" fill="#F2F2F2"/>
<path d="M509.013 522.524H497.181L491.55 476.91H509.013V522.524Z" fill="#FFB6B6"/>
<path d="M515.257 543.014H506.772L505.258 535.007L501.379 543.014H478.876C477.797 543.014 476.746 542.67 475.877 542.031C475.009 541.392 474.367 540.492 474.046 539.463C473.725 538.433 473.741 537.328 474.093 536.309C474.445 535.29 475.113 534.41 476.001 533.797L493.972 521.392V513.297L512.874 514.425L515.257 543.014Z" fill="#2F2E41"/>
<path d="M527.585 439.908L519.277 448.33L482.827 420.314L495.087 407.885L527.585 439.908Z" fill="#FFB6B6"/>
<path d="M546.566 449.849L540.609 455.889L533.842 451.345L536.823 459.727L521.024 475.745C520.266 476.512 519.283 477.018 518.218 477.188C517.153 477.358 516.061 477.183 515.103 476.689C514.144 476.195 513.368 475.407 512.889 474.441C512.41 473.475 512.252 472.382 512.439 471.32L516.218 449.819L510.451 444.136L524.525 431.474L546.566 449.849Z" fill="#2F2E41"/>
<path d="M432.941 193.139L468.728 136.227C470.237 133.812 470.736 130.9 470.116 128.12C469.496 125.34 467.807 122.916 465.415 121.369C464.177 120.57 462.789 120.03 461.336 119.784C459.883 119.537 458.395 119.589 456.962 119.937C455.53 120.284 454.183 120.919 453.004 121.803C451.825 122.688 450.839 123.803 450.106 125.081L414.745 185.337L391.714 221.046C389.798 220.712 387.825 220.975 386.064 221.8C384.302 222.625 382.838 223.972 381.87 225.658C380.901 227.344 380.475 229.287 380.65 231.224C380.825 233.16 381.592 234.996 382.846 236.481C384.101 237.967 385.783 239.03 387.664 239.527C389.544 240.023 391.532 239.93 393.357 239.258C395.183 238.586 396.757 237.369 397.866 235.772C398.975 234.174 399.565 232.275 399.557 230.331L432.941 193.139Z" fill="#FFB6B6"/>
<path d="M466.668 151.111L469.685 150.542C469.279 149.802 469.109 148.955 469.199 148.116C469.288 147.276 469.633 146.485 470.187 145.847C470.74 145.21 471.476 144.757 472.295 144.55C473.114 144.343 473.976 144.391 474.767 144.689C471.131 140.899 472.897 134.66 475.235 129.958C476.926 126.56 478.826 123.202 479.653 119.498C480.909 113.875 479.289 107.07 471.787 105.724C468.72 105.244 465.582 105.879 462.943 107.513C458.228 110.298 457.167 109.086 454.193 113.569L452.497 116.718C450.32 120.128 447.721 123.25 444.762 126.01C442.647 128.116 440.941 130.597 439.734 133.326C439.575 133.664 439.341 133.961 439.049 134.193C437.888 135.09 436.311 135.135 434.857 135.326C433.024 135.566 430.927 136.342 430.975 138.615C431.001 139.158 431.14 139.69 431.382 140.177C431.624 140.664 431.964 141.096 432.381 141.445C440.121 148.215 449.177 153.312 458.982 156.415C461.16 157.103 463.607 157.673 465.656 156.663C467.705 155.654 468.584 152.354 466.668 151.111Z" fill="black"/>
<path d="M512.075 259.28L442.401 258.208L440.258 242.137L446.689 205.709H501.356L512.075 259.28Z" fill="#FFB6B6"/>
<path d="M363.078 300.136H91.8906C85.8836 300.129 80.1248 297.741 75.8775 293.495C71.6305 289.25 69.2416 283.495 69.2346 277.492V122.141C69.2417 116.138 71.6306 110.383 75.8776 106.138C80.1246 101.893 85.883 99.5048 91.8895 99.4977H363.08C369.086 99.5048 374.844 101.893 379.091 106.138C383.339 110.383 385.728 116.139 385.735 122.142V277.491C385.728 283.494 383.339 289.25 379.092 293.495C374.844 297.741 369.085 300.129 363.078 300.136Z" fill="white" stroke="black" stroke-width="4"/>
<path d="M363.081 302.136H91.8884C85.352 302.128 79.0855 299.53 74.4636 294.91C69.8417 290.29 67.2419 284.027 67.2346 277.493V122.14C67.242 115.607 69.8418 109.343 74.4637 104.723C79.0856 100.104 85.3521 97.5051 91.8884 97.4977H363.081C369.617 97.5051 375.883 100.104 380.505 104.723C385.127 109.343 387.727 115.607 387.735 122.14V277.493C387.727 284.027 385.127 290.29 380.505 294.91C375.884 299.53 369.617 302.128 363.081 302.136ZM91.8884 99.6405C85.9204 99.6472 80.1988 102.02 75.9788 106.238C71.7588 110.456 69.3851 116.175 69.3784 122.14V277.493C69.3852 283.459 71.7589 289.177 75.9789 293.395C80.1989 297.613 85.9205 299.986 91.8884 299.993H363.081C369.049 299.986 374.77 297.613 378.99 293.395C383.21 289.177 385.584 283.459 385.591 277.493V122.14C385.584 116.175 383.21 110.456 378.99 106.238C374.77 102.02 369.049 99.6472 363.081 99.6405H91.8884Z" fill="#E6E6E6"/>
<path d="M385.592 210.359H68.3056C68.0213 210.359 67.7486 210.246 67.5476 210.045C67.3466 209.844 67.2337 209.571 67.2337 209.287C67.2337 209.003 67.3466 208.731 67.5476 208.53C67.7486 208.329 68.0213 208.216 68.3056 208.216H385.592C385.876 208.216 386.149 208.329 386.35 208.53C386.551 208.731 386.664 209.003 386.664 209.287C386.664 209.571 386.551 209.844 386.35 210.045C386.149 210.246 385.876 210.359 385.592 210.359Z" fill="#E6E6E6"/>
<path d="M362.009 50.3559C367.337 50.3559 371.656 46.0388 371.656 40.7133C371.656 35.3878 367.337 31.0707 362.009 31.0707C356.681 31.0707 352.362 35.3878 352.362 40.7133C352.362 46.0388 356.681 50.3559 362.009 50.3559Z" fill="#F2F2F2"/>
<path d="M9.64716 203.888C14.9751 203.888 19.2943 199.571 19.2943 194.245C19.2943 188.92 14.9751 184.603 9.64716 184.603C4.31918 184.603 0 188.92 0 194.245C0 199.571 4.31918 203.888 9.64716 203.888Z" fill="#F2F2F2"/>
<path d="M207.95 368.884C213.278 368.884 217.597 364.567 217.597 359.241C217.597 353.916 213.278 349.599 207.95 349.599C202.622 349.599 198.303 353.916 198.303 359.241C198.303 364.567 202.622 368.884 207.95 368.884Z" fill="#F2F2F2"/>
<path d="M149.687 257.458H116.196C115.912 257.458 115.639 257.345 115.438 257.144C115.237 256.943 115.124 256.671 115.124 256.387C115.124 256.103 115.237 255.83 115.438 255.629C115.639 255.428 115.912 255.315 116.196 255.315H149.687C149.971 255.315 150.244 255.428 150.445 255.629C150.646 255.83 150.759 256.103 150.759 256.387C150.759 256.671 150.646 256.943 150.445 257.144C150.244 257.345 149.971 257.458 149.687 257.458Z" fill="#CCCCCC"/>
<path d="M149.687 274.601H116.196C115.912 274.601 115.639 274.488 115.438 274.287C115.237 274.086 115.124 273.813 115.124 273.529C115.124 273.245 115.237 272.973 115.438 272.772C115.639 272.571 115.912 272.458 116.196 272.458H149.687C149.971 272.458 150.244 272.571 150.445 272.772C150.646 272.973 150.759 273.245 150.759 273.529C150.759 273.813 150.646 274.086 150.445 274.287C150.244 274.488 149.971 274.601 149.687 274.601Z" fill="#CCCCCC"/>
<path d="M332.983 257.458H299.492C299.208 257.458 298.935 257.345 298.734 257.144C298.533 256.943 298.42 256.671 298.42 256.387C298.42 256.103 298.533 255.83 298.734 255.629C298.935 255.428 299.208 255.315 299.492 255.315H332.983C333.267 255.315 333.54 255.428 333.741 255.629C333.942 255.83 334.055 256.103 334.055 256.387C334.055 256.671 333.942 256.943 333.741 257.144C333.54 257.345 333.267 257.458 332.983 257.458Z" fill="#CCCCCC"/>
<path d="M332.983 274.601H299.492C299.208 274.601 298.935 274.488 298.734 274.287C298.533 274.086 298.42 273.813 298.42 273.529C298.42 273.245 298.533 272.973 298.734 272.772C298.935 272.571 299.208 272.458 299.492 272.458H332.983C333.267 272.458 333.54 272.571 333.741 272.772C333.942 272.973 334.055 273.245 334.055 273.529C334.055 273.813 333.942 274.086 333.741 274.287C333.54 274.488 333.267 274.601 332.983 274.601Z" fill="#CCCCCC"/>
<path d="M271.884 257.458H238.393C238.109 257.458 237.837 257.345 237.636 257.144C237.434 256.943 237.322 256.671 237.322 256.387C237.322 256.103 237.434 255.83 237.636 255.629C237.837 255.428 238.109 255.315 238.393 255.315H271.884C272.169 255.315 272.441 255.428 272.642 255.629C272.843 255.83 272.956 256.103 272.956 256.387C272.956 256.671 272.843 256.943 272.642 257.144C272.441 257.345 272.169 257.458 271.884 257.458Z" fill="#CCCCCC"/>
<path d="M271.884 274.601H238.393C238.109 274.601 237.837 274.488 237.636 274.287C237.434 274.086 237.322 273.813 237.322 273.529C237.322 273.245 237.434 272.973 237.636 272.772C237.837 272.571 238.109 272.458 238.393 272.458H271.884C272.169 272.458 272.441 272.571 272.642 272.772C272.843 272.973 272.956 273.245 272.956 273.529C272.956 273.813 272.843 274.086 272.642 274.287C272.441 274.488 272.169 274.601 271.884 274.601Z" fill="#CCCCCC"/>
<path d="M210.786 257.458H177.295C177.011 257.458 176.738 257.345 176.537 257.144C176.336 256.943 176.223 256.671 176.223 256.387C176.223 256.103 176.336 255.83 176.537 255.629C176.738 255.428 177.011 255.315 177.295 255.315H210.786C211.07 255.315 211.343 255.428 211.544 255.629C211.745 255.83 211.858 256.103 211.858 256.387C211.858 256.671 211.745 256.943 211.544 257.144C211.343 257.345 211.07 257.458 210.786 257.458Z" fill="#CCCCCC"/>
<path d="M210.786 274.601H177.295C177.011 274.601 176.738 274.488 176.537 274.287C176.336 274.086 176.223 273.813 176.223 273.529C176.223 273.245 176.336 272.973 176.537 272.772C176.738 272.571 177.011 272.458 177.295 272.458H210.786C211.07 272.458 211.343 272.571 211.544 272.772C211.745 272.973 211.858 273.245 211.858 273.529C211.858 273.813 211.745 274.086 211.544 274.287C211.343 274.488 211.07 274.601 210.786 274.601Z" fill="#CCCCCC"/>
<path d="M440.258 241.066L438.114 269.994L397.668 342.412C395.726 345.636 394.874 349.4 395.238 353.146C395.602 356.893 397.164 360.422 399.691 363.212L463.119 420.657C463.119 420.657 475.587 421.066 474.537 426.956C473.487 432.847 480.151 432.568 480.151 432.568L487.651 437.984L491.709 407.133C478.073 376.699 457.851 367.415 440.258 353.375C440.258 353.375 447.676 351.171 446.111 348.617C444.546 346.063 449.461 345.894 449.461 345.894C449.461 345.894 452.723 345.454 452.922 343.08C453.121 340.706 456.284 340.347 456.284 340.347L474.029 322.492L520.651 320.35C520.651 320.35 540.38 270.947 507.788 238.923L440.258 241.066Z" fill="#2F2E41"/>
<path d="M474.133 309.076L489.565 492.845L512.295 491.47L520.651 320.35L474.133 309.076Z" fill="#2F2E41"/>
<path d="M475.241 89.8861L501.26 88.5464L513.345 107.633C513.345 107.633 536.083 111.433 534.507 138.215C532.931 164.997 506.842 188.498 506.842 188.498L507.957 202.444L506.02 207.976L506.268 211.082L508.911 214.372L509.183 217.774L506.842 223.156L507.788 230.352C507.788 230.352 484.246 235.023 471.899 225.723C459.552 216.423 441.33 221.78 441.33 221.78L440.644 212.916L444.214 208.131L442.22 201.889L445.218 195.885L446.782 176.814C446.782 176.814 429.677 151.129 449.313 131.783L457.193 118.393L466.011 107.639L475.241 89.8861Z" fill="black"/>
<path d="M539.043 206.036L537.128 138.843C537.039 135.997 535.833 133.3 533.772 131.334C531.71 129.368 528.958 128.291 526.109 128.336C524.635 128.359 523.181 128.682 521.837 129.285C520.492 129.887 519.284 130.758 518.286 131.843C517.289 132.927 516.523 134.204 516.035 135.594C515.547 136.984 515.348 138.459 515.449 139.929L519.579 209.665L520.301 252.144C518.523 252.931 517.03 254.246 516.025 255.911C515.02 257.576 514.552 259.509 514.685 261.449C514.818 263.388 515.545 265.24 516.767 266.752C517.99 268.265 519.648 269.364 521.518 269.901C523.387 270.439 525.377 270.388 527.216 269.755C529.055 269.123 530.655 267.94 531.799 266.367C532.942 264.795 533.573 262.908 533.607 260.964C533.64 259.02 533.074 257.113 531.985 255.502L539.043 206.036Z" fill="#FFB6B6"/>
<path d="M543.695 152.359C544.187 151.86 544.501 151.213 544.59 150.518C544.678 149.823 544.536 149.118 544.185 148.512C543.766 147.756 543.594 146.887 543.692 146.029C543.713 145.863 543.745 145.698 543.787 145.537C544.067 144.569 544.109 143.547 543.909 142.56C543.71 141.572 543.275 140.647 542.641 139.863C540.518 137.315 539.493 133.456 539.049 130.016C538.564 126.253 538.275 122.406 536.902 118.867C534.922 113.763 530.189 109.215 523.731 111.392C520.998 112.36 518.683 114.241 517.175 116.716C513.954 121.85 513.92 128.057 513.943 133.996L512.785 131.649C512.923 138.135 511.75 144.582 509.336 150.604C510.775 150.325 511.794 152.258 511.328 153.648C510.863 155.038 509.577 155.952 508.474 156.919C507.085 158.138 505.774 159.948 507.077 161.81C507.402 162.247 507.813 162.612 508.285 162.883C508.757 163.153 509.28 163.323 509.821 163.381C520.02 164.707 530.382 163.909 540.258 161.04C542.451 160.401 544.802 159.514 545.943 157.537C547.085 155.559 545.979 152.328 543.695 152.359Z" fill="black"/>
<path d="M489.566 84.6408C503.182 84.6408 514.219 73.6081 514.219 59.9986C514.219 46.389 503.182 35.3563 489.566 35.3563C475.95 35.3563 464.912 46.389 464.912 59.9986C464.912 73.6081 475.95 84.6408 489.566 84.6408Z" fill="#FFB6B6"/>
<path d="M234.013 57.4677C249.89 57.4677 262.76 44.6031 262.76 28.7339C262.76 12.8646 249.89 0 234.013 0C218.136 0 205.266 12.8646 205.266 28.7339C205.266 44.6031 218.136 57.4677 234.013 57.4677Z" fill="black"/>
<path d="M233.002 40.2602C232.616 40.2602 232.236 40.1704 231.891 39.9979C231.546 39.8254 231.246 39.5749 231.014 39.2664L224.919 31.143C224.722 30.8821 224.579 30.585 224.498 30.2687C224.416 29.9524 224.398 29.6232 224.444 29.2998C224.49 28.9765 224.599 28.6653 224.765 28.3842C224.932 28.1031 225.152 27.8576 225.413 27.6616C225.675 27.4657 225.972 27.3232 226.289 27.2423C226.605 27.1614 226.935 27.1437 227.258 27.1902C227.582 27.2367 227.893 27.3465 228.173 27.5133C228.454 27.6801 228.7 27.9006 228.895 28.1623L232.883 33.4764L243.125 18.1207C243.491 17.5739 244.06 17.1947 244.705 17.0663C245.351 16.9378 246.021 17.0707 246.569 17.4357C247.117 17.8007 247.497 18.368 247.627 19.0131C247.757 19.6582 247.625 20.3284 247.261 20.8766L235.07 39.1539C234.85 39.4845 234.553 39.7574 234.205 39.9497C233.858 40.1421 233.469 40.2483 233.071 40.2594L233.002 40.2602Z" fill="white"/>
<path d="M289.062 110.809H165.907C162.907 110.809 160.03 109.618 157.908 107.498C155.787 105.377 154.595 102.501 154.595 99.5025C154.595 96.5038 155.787 93.6279 157.908 91.5074C160.03 89.387 162.907 88.1958 165.907 88.1958H289.062C290.549 88.1943 292.021 88.4857 293.394 89.0533C294.768 89.6208 296.016 90.4534 297.068 91.5035C298.12 92.5536 298.954 93.8005 299.523 95.1731C300.092 96.5456 300.385 98.0168 300.385 99.5025C300.385 100.988 300.092 102.459 299.523 103.832C298.954 105.205 298.12 106.451 297.068 107.501C296.016 108.552 294.768 109.384 293.394 109.952C292.021 110.519 290.549 110.811 289.062 110.809Z" fill="black"/>
<path d="M661.73 544.671L388.011 545C387.674 544.998 387.351 544.863 387.113 544.624C386.876 544.385 386.742 544.061 386.742 543.724C386.742 543.387 386.876 543.064 387.113 542.825C387.351 542.586 387.674 542.451 388.011 542.449L661.73 542.119C662.068 542.121 662.391 542.256 662.629 542.495C662.867 542.734 663 543.058 663 543.395C663 543.732 662.867 544.056 662.629 544.295C662.391 544.534 662.068 544.669 661.73 544.671Z" fill="#CACACA"/>
<path d="M520.651 53.5702V58.9272H499.32C499.537 57.893 499.537 56.8253 499.321 55.7909C499.105 54.7566 498.678 53.778 498.066 52.9166C498.048 55.0132 497.526 57.0748 496.544 58.9272C484.209 62.5728 473.857 62.5029 465.374 58.9272C464.114 58.9272 462.906 58.427 462.015 57.5367C461.124 56.6465 460.624 55.439 460.624 54.18C460.624 37.7555 473.577 23.9159 490.005 23.5774C493.999 23.4929 497.97 24.2062 501.684 25.6755C505.399 27.1449 508.782 29.3407 511.637 32.1342C514.491 34.9277 516.758 38.2627 518.306 41.9436C519.854 45.6245 520.651 49.5773 520.651 53.5702Z" fill="#2F2E41"/>
<path d="M237.668 145.711H194.791C193.654 145.711 192.564 145.259 191.76 144.456C190.956 143.652 190.504 142.562 190.504 141.425C190.504 140.289 190.956 139.199 191.76 138.395C192.564 137.591 193.654 137.14 194.791 137.14H237.668C238.805 137.14 239.895 137.591 240.699 138.395C241.504 139.199 241.955 140.289 241.955 141.425C241.955 142.562 241.504 143.652 240.699 144.456C239.895 145.259 238.805 145.711 237.668 145.711Z" fill="#CCCCCC"/>
<path d="M248.387 237.101H205.51C204.373 237.101 203.283 236.65 202.479 235.846C201.675 235.043 201.223 233.953 201.223 232.816C201.223 231.679 201.675 230.589 202.479 229.785C203.283 228.982 204.373 228.53 205.51 228.53H248.387C249.524 228.53 250.614 228.982 251.419 229.785C252.223 230.589 252.674 231.679 252.674 232.816C252.674 233.953 252.223 235.043 251.419 235.846C250.614 236.65 249.524 237.101 248.387 237.101Z" fill="#CCCCCC"/>
<path d="M329.852 169.282H193.72C192.582 169.282 191.492 168.83 190.688 168.026C189.884 167.223 189.432 166.133 189.432 164.996C189.432 163.859 189.884 162.769 190.688 161.966C191.492 161.162 192.582 160.71 193.72 160.71H329.852C330.989 160.71 332.079 161.162 332.883 161.966C333.687 162.769 334.139 163.859 334.139 164.996C334.139 166.133 333.687 167.223 332.883 168.026C332.079 168.83 330.989 169.282 329.852 169.282Z" fill="#CCCCCC"/>
<path d="M143.872 181.944C159.748 181.944 172.619 169.08 172.619 153.211C172.619 137.341 159.748 124.477 143.872 124.477C127.995 124.477 115.124 137.341 115.124 153.211C115.124 169.08 127.995 181.944 143.872 181.944Z" fill="#E6E6E6"/>
</g>
<defs>
<clipPath id="clip0_213_680">
<rect width="663" height="545" fill="white"/>
</clipPath>
</defs>
</svg>
