<?xml version="1.0" encoding="UTF-8"?>
<svg xmlns="http://www.w3.org/2000/svg" id="Layer_1" data-name="Layer 1" viewBox="0 0 24 24" width="512" height="512"><path d="M24,15.5c0,3.584-2.916,6.5-6.5,6.5h-5c-3.584,0-6.5-2.916-6.5-6.5s2.916-6.5,6.5-6.5h2c.276,0,.5,.224,.5,.5s-.224,.5-.5,.5h-2c-3.033,0-5.5,2.468-5.5,5.5s2.467,5.5,5.5,5.5h5c3.033,0,5.5-2.468,5.5-5.5,0-1.958-1.054-3.783-2.75-4.765-.239-.138-.321-.444-.182-.683,.137-.239,.442-.323,.683-.183,2.004,1.159,3.25,3.316,3.25,5.63ZM3.75,13.265c-1.697-.981-2.75-2.807-2.75-4.765C1,5.468,3.467,3,6.5,3h5c3.033,0,5.5,2.468,5.5,5.5s-2.467,5.5-5.5,5.5h-2c-.276,0-.5,.224-.5,.5s.224,.5,.5,.5h2c3.584,0,6.5-2.916,6.5-6.5s-2.916-6.5-6.5-6.5H6.5C2.916,2,0,4.916,0,8.5c0,2.313,1.245,4.471,3.25,5.63,.239,.138,.545,.057,.683-.183,.139-.238,.057-.545-.182-.683Z"/></svg>
