<?xml version="1.0" encoding="UTF-8"?>
<svg xmlns="http://www.w3.org/2000/svg" id="Layer_1" data-name="Layer 1" viewBox="0 0 24 24" width="512" height="512"><path d="m20.096,5.389l-3.485-3.485c-1.228-1.228-2.86-1.904-4.596-1.904h-5.515C4.019,0,2,2.019,2,4.5v15c0,2.481,2.019,4.5,4.5,4.5h11c2.481,0,4.5-2.019,4.5-4.5v-9.515c0-1.736-.676-3.369-1.904-4.596Zm-.707.707c.551.551.97,1.198,1.243,1.904h-5.132c-.827,0-1.5-.673-1.5-1.5V1.368c.706.273,1.353.692,1.904,1.243l3.485,3.485Zm1.611,13.404c0,1.93-1.57,3.5-3.5,3.5H6.5c-1.93,0-3.5-1.57-3.5-3.5V4.5c0-1.93,1.57-3.5,3.5-3.5h5.515c.334,0,.663.03.985.088v5.412c0,1.378,1.122,2.5,2.5,2.5h5.412c.058.322.088.651.088.985v9.515Zm-5.087-5.35c.193.197.189.514-.008.707-.097.095-.224.143-.35.143-.13,0-.259-.05-.357-.15l-2.515-2.57c-.056-.056-.117-.103-.183-.142v7.363c0,.276-.224.5-.5.5s-.5-.224-.5-.5v-7.362c-.066.04-.129.088-.187.146l-2.511,2.566c-.193.198-.509.202-.707.008-.197-.193-.201-.51-.008-.707l2.515-2.57c.384-.384.886-.577,1.388-.58.003,0,.006,0,.009,0,.003,0,.006,0,.009,0,.502.002,1.003.194,1.384.576l2.519,2.574Z"/></svg>
