<svg width="18" height="18" viewBox="0 0 18 18" fill="none" xmlns="http://www.w3.org/2000/svg">
<path fill-rule="evenodd" clip-rule="evenodd" d="M9 2.8125C9.31066 2.8125 9.5625 3.06434 9.5625 3.375V8.4375H14.625C14.9357 8.4375 15.1875 8.68934 15.1875 9C15.1875 9.31066 14.9357 9.5625 14.625 9.5625H9.5625V14.625C9.5625 14.9357 9.31066 15.1875 9 15.1875C8.68934 15.1875 8.4375 14.9357 8.4375 14.625V9.5625H3.375C3.06434 9.5625 2.8125 9.31066 2.8125 9C2.8125 8.68934 3.06434 8.4375 3.375 8.4375H8.4375V3.375C8.4375 3.06434 8.68934 2.8125 9 2.8125Z" fill="black"/>
</svg>
