<svg width="204" height="150" viewBox="0 0 204 150" fill="none" xmlns="http://www.w3.org/2000/svg">
<path d="M57.146 71.5529C73.0431 81.8906 88.1453 92.9368 103.948 103.404" stroke="#6A6C6C" stroke-width="5.43899" stroke-miterlimit="1.5" stroke-linecap="round" stroke-linejoin="round"/>
<path d="M156.251 107.178C144.872 100.413 134.846 90.8926 124.756 83.2234C102.005 65.9313 75.9648 50.4625 51.2014 34.5829" stroke="#AEAEAE" stroke-width="5.43899" stroke-miterlimit="1.5" stroke-linecap="round" stroke-linejoin="round"/>
<path d="M53.5969 -4.05148C74.1133 9.30489 97.1611 20.7092 118.215 33.6578C156.432 57.1621 194.809 83.8791 228.797 110.291" stroke="#6A6C6C" stroke-width="5.43899" stroke-miterlimit="1.5" stroke-linecap="round" stroke-linejoin="round"/>
<path d="M108.128 -8.28827C142.931 13.8964 178.369 35.489 212.12 58.4813" stroke="#AEAEAE" stroke-width="5.43899" stroke-miterlimit="1.5" stroke-linecap="round" stroke-linejoin="round"/>
<path d="M163.499 -8.03305C181.175 3.49316 200.004 14.2165 217.822 25.6584" stroke="#C8CDCC" stroke-width="5.43899" stroke-miterlimit="1.5" stroke-linecap="round" stroke-linejoin="round"/>
<path d="M170.207 -40.1156C200.393 -19.1151 233.295 -0.152751 264.207 20.2995" stroke="#F5BD33" stroke-width="5.43899" stroke-miterlimit="1.5" stroke-linecap="round" stroke-linejoin="round"/>
</svg>
